<mxfile host="app.diagrams.net" modified="2021-11-26T13:03:06.344Z" agent="5.0 (Macintosh; Intel Mac OS X 10_15_6) AppleWebKit/537.36 (KHTML, like Gecko) Chrome/95.0.4638.69 Safari/537.36" etag="nwr4cLvU4M4HJSRgjt9z" version="15.7.4" type="github">
  <diagram id="S992L737y4yIW5Ho0LRY" name="Page-1">
    <mxGraphModel dx="1773" dy="608" grid="1" gridSize="10" guides="1" tooltips="1" connect="1" arrows="1" fold="1" page="1" pageScale="1" pageWidth="827" pageHeight="1169" math="0" shadow="0">
      <root>
        <mxCell id="0" />
        <mxCell id="1" parent="0" />
        <mxCell id="9vFWIDzpB-WMlndjmJIf-23" value="mysql server" style="swimlane;dashed=1;" vertex="1" parent="1">
          <mxGeometry x="-7" y="80" width="307" height="480" as="geometry" />
        </mxCell>
        <mxCell id="9vFWIDzpB-WMlndjmJIf-32" value="&lt;b&gt;&lt;font color=&quot;#006633&quot;&gt;执行器&lt;br&gt;&lt;/font&gt;&lt;/b&gt;与存储引擎交互&lt;br&gt;记录binlog" style="rounded=1;whiteSpace=wrap;html=1;" vertex="1" parent="9vFWIDzpB-WMlndjmJIf-23">
          <mxGeometry x="30" y="269" width="120" height="60" as="geometry" />
        </mxCell>
        <mxCell id="9vFWIDzpB-WMlndjmJIf-134" value="thread &lt;br&gt;binlog caches" style="rounded=1;whiteSpace=wrap;html=1;shadow=0;glass=0;sketch=0;fontSize=10;fontColor=#333333;fillColor=#f5f5f5;verticalAlign=middle;strokeColor=#666666;align=center;" vertex="1" parent="9vFWIDzpB-WMlndjmJIf-23">
          <mxGeometry x="43" y="322" width="100" height="28" as="geometry" />
        </mxCell>
        <mxCell id="9vFWIDzpB-WMlndjmJIf-27" value="" style="edgeStyle=orthogonalEdgeStyle;rounded=0;orthogonalLoop=1;jettySize=auto;html=1;startArrow=classicThin;startFill=1;" edge="1" parent="9vFWIDzpB-WMlndjmJIf-23" source="9vFWIDzpB-WMlndjmJIf-3" target="9vFWIDzpB-WMlndjmJIf-26">
          <mxGeometry relative="1" as="geometry" />
        </mxCell>
        <mxCell id="9vFWIDzpB-WMlndjmJIf-3" value="&lt;b&gt;连接器&lt;br&gt;&lt;/b&gt;(select/poll)&lt;br&gt;管理连接回话，权限验证" style="rounded=1;whiteSpace=wrap;html=1;" vertex="1" parent="9vFWIDzpB-WMlndjmJIf-23">
          <mxGeometry x="46" y="30" width="94" height="60" as="geometry" />
        </mxCell>
        <mxCell id="9vFWIDzpB-WMlndjmJIf-31" value="" style="edgeStyle=orthogonalEdgeStyle;rounded=0;orthogonalLoop=1;jettySize=auto;html=1;startArrow=classicThin;startFill=1;" edge="1" parent="9vFWIDzpB-WMlndjmJIf-23" source="9vFWIDzpB-WMlndjmJIf-26" target="9vFWIDzpB-WMlndjmJIf-30">
          <mxGeometry relative="1" as="geometry" />
        </mxCell>
        <mxCell id="9vFWIDzpB-WMlndjmJIf-26" value="&lt;b&gt;分析器&lt;br&gt;&lt;/b&gt;语法分析校验" style="rounded=1;whiteSpace=wrap;html=1;" vertex="1" parent="9vFWIDzpB-WMlndjmJIf-23">
          <mxGeometry x="46" y="120" width="94" height="40" as="geometry" />
        </mxCell>
        <mxCell id="9vFWIDzpB-WMlndjmJIf-33" value="" style="edgeStyle=orthogonalEdgeStyle;rounded=0;orthogonalLoop=1;jettySize=auto;html=1;startArrow=classicThin;startFill=1;" edge="1" parent="9vFWIDzpB-WMlndjmJIf-23" source="9vFWIDzpB-WMlndjmJIf-30" target="9vFWIDzpB-WMlndjmJIf-32">
          <mxGeometry relative="1" as="geometry" />
        </mxCell>
        <mxCell id="9vFWIDzpB-WMlndjmJIf-30" value="&lt;b&gt;优化器&lt;br&gt;&lt;/b&gt;优化语句, 选择索引" style="rounded=1;whiteSpace=wrap;html=1;" vertex="1" parent="9vFWIDzpB-WMlndjmJIf-23">
          <mxGeometry x="38" y="190" width="110" height="40" as="geometry" />
        </mxCell>
        <mxCell id="9vFWIDzpB-WMlndjmJIf-65" value="" style="edgeStyle=orthogonalEdgeStyle;rounded=0;orthogonalLoop=1;jettySize=auto;html=1;fontColor=#000000;startArrow=none;exitX=0.5;exitY=1;exitDx=0;exitDy=0;" edge="1" parent="9vFWIDzpB-WMlndjmJIf-23" source="9vFWIDzpB-WMlndjmJIf-134" target="9vFWIDzpB-WMlndjmJIf-64">
          <mxGeometry relative="1" as="geometry">
            <mxPoint x="93" y="490" as="sourcePoint" />
          </mxGeometry>
        </mxCell>
        <mxCell id="9vFWIDzpB-WMlndjmJIf-34" value="生成执行计划" style="text;html=1;align=center;verticalAlign=middle;resizable=0;points=[];autosize=1;strokeColor=none;fillColor=none;" vertex="1" parent="9vFWIDzpB-WMlndjmJIf-23">
          <mxGeometry x="50" y="240" width="90" height="20" as="geometry" />
        </mxCell>
        <mxCell id="9vFWIDzpB-WMlndjmJIf-64" value="binlog 日志文件&lt;br&gt;binlog.**/binlog.index" style="rounded=1;whiteSpace=wrap;html=1;fontColor=#000000;fillColor=#E6E6E6;" vertex="1" parent="9vFWIDzpB-WMlndjmJIf-23">
          <mxGeometry x="33" y="392" width="120" height="60" as="geometry" />
        </mxCell>
        <mxCell id="9vFWIDzpB-WMlndjmJIf-68" value="8. sync_binlog&lt;br&gt;组提交" style="text;html=1;align=center;verticalAlign=middle;resizable=0;points=[];autosize=1;strokeColor=none;fillColor=none;fontSize=11;fontColor=#000000;" vertex="1" parent="9vFWIDzpB-WMlndjmJIf-23">
          <mxGeometry x="91" y="360" width="90" height="30" as="geometry" />
        </mxCell>
        <mxCell id="9vFWIDzpB-WMlndjmJIf-111" value="" style="endArrow=classic;html=1;fontSize=11;fontColor=#000000;exitX=1;exitY=0.5;exitDx=0;exitDy=0;startArrow=none;startFill=0;curved=1;" edge="1" parent="9vFWIDzpB-WMlndjmJIf-23" source="9vFWIDzpB-WMlndjmJIf-32">
          <mxGeometry width="50" height="50" relative="1" as="geometry">
            <mxPoint x="153" y="314" as="sourcePoint" />
            <mxPoint x="397" y="160" as="targetPoint" />
            <Array as="points">
              <mxPoint x="212" y="130" />
            </Array>
          </mxGeometry>
        </mxCell>
        <mxCell id="9vFWIDzpB-WMlndjmJIf-133" value="7.将thread caches &lt;br&gt;写入binlog (xid, GTID)&lt;br&gt;组提交" style="text;html=1;align=center;verticalAlign=middle;resizable=0;points=[];autosize=1;strokeColor=none;fillColor=none;fontSize=11;fontColor=#7EA6E0;" vertex="1" parent="9vFWIDzpB-WMlndjmJIf-23">
          <mxGeometry x="142" y="315" width="130" height="40" as="geometry" />
        </mxCell>
        <mxCell id="9vFWIDzpB-WMlndjmJIf-36" value="InnoDB" style="swimlane;dashed=1;" vertex="1" parent="1">
          <mxGeometry x="340" y="80" width="620" height="480" as="geometry" />
        </mxCell>
        <mxCell id="9vFWIDzpB-WMlndjmJIf-63" value="" style="shape=image;verticalLabelPosition=bottom;labelBackgroundColor=#ffffff;verticalAlign=top;aspect=fixed;imageAspect=0;image=https://dev.mysql.com/doc/refman/8.0/en/images/innodb-architecture.png;" vertex="1" parent="9vFWIDzpB-WMlndjmJIf-36">
          <mxGeometry x="50" y="47.5" width="520" height="405" as="geometry" />
        </mxCell>
        <mxCell id="9vFWIDzpB-WMlndjmJIf-41" value="" style="edgeStyle=orthogonalEdgeStyle;rounded=0;orthogonalLoop=1;jettySize=auto;html=1;" edge="1" parent="9vFWIDzpB-WMlndjmJIf-36" target="9vFWIDzpB-WMlndjmJIf-43">
          <mxGeometry relative="1" as="geometry">
            <mxPoint x="93" y="230" as="sourcePoint" />
          </mxGeometry>
        </mxCell>
        <mxCell id="9vFWIDzpB-WMlndjmJIf-74" value="&lt;font&gt;6.flush redo log&lt;br&gt;by &lt;span style=&quot;font-size: 10px&quot;&gt;fsync/fdatasync&lt;br&gt;&lt;/span&gt;组提交&lt;br&gt;&lt;/font&gt;" style="text;html=1;align=center;verticalAlign=middle;resizable=0;points=[];autosize=1;strokeColor=none;fillColor=none;fontSize=10;fontColor=#7EA6E0;" vertex="1" parent="9vFWIDzpB-WMlndjmJIf-36">
          <mxGeometry x="198" y="388" width="110" height="40" as="geometry" />
        </mxCell>
        <mxCell id="9vFWIDzpB-WMlndjmJIf-78" value="&amp;nbsp;" style="text;html=1;align=center;verticalAlign=middle;resizable=0;points=[];autosize=1;strokeColor=none;fillColor=none;fontSize=10;fontColor=#000000;" vertex="1" parent="9vFWIDzpB-WMlndjmJIf-36">
          <mxGeometry x="439" y="139" width="20" height="20" as="geometry" />
        </mxCell>
        <mxCell id="9vFWIDzpB-WMlndjmJIf-79" value="&amp;nbsp;" style="text;html=1;align=center;verticalAlign=middle;resizable=0;points=[];autosize=1;strokeColor=none;fillColor=none;fontSize=10;fontColor=#000000;" vertex="1" parent="9vFWIDzpB-WMlndjmJIf-36">
          <mxGeometry x="178" y="140" width="20" height="20" as="geometry" />
        </mxCell>
        <mxCell id="9vFWIDzpB-WMlndjmJIf-81" value="" style="endArrow=classic;html=1;fontSize=11;fontColor=#000000;strokeColor=#FF8000;startArrow=none;startFill=0;entryX=1;entryY=0.6;entryDx=0;entryDy=0;entryPerimeter=0;exitX=0.05;exitY=0.35;exitDx=0;exitDy=0;exitPerimeter=0;rounded=0;endFill=1;dashed=1;dashPattern=1 1;" edge="1" parent="9vFWIDzpB-WMlndjmJIf-36" source="9vFWIDzpB-WMlndjmJIf-78">
          <mxGeometry width="50" height="50" relative="1" as="geometry">
            <mxPoint x="430" y="141" as="sourcePoint" />
            <mxPoint x="198" y="147" as="targetPoint" />
            <Array as="points" />
          </mxGeometry>
        </mxCell>
        <mxCell id="9vFWIDzpB-WMlndjmJIf-117" style="edgeStyle=orthogonalEdgeStyle;curved=1;orthogonalLoop=1;jettySize=auto;html=1;exitX=0.5;exitY=1;exitDx=0;exitDy=0;dashed=1;fontSize=10;fontColor=#000000;startArrow=none;startFill=0;endArrow=none;endFill=0;strokeColor=#D5E8D4;" edge="1" parent="9vFWIDzpB-WMlndjmJIf-36" source="9vFWIDzpB-WMlndjmJIf-71">
          <mxGeometry relative="1" as="geometry">
            <mxPoint x="150" y="447" as="targetPoint" />
          </mxGeometry>
        </mxCell>
        <mxCell id="9vFWIDzpB-WMlndjmJIf-71" value="" style="rounded=1;whiteSpace=wrap;html=1;fontSize=11;fontColor=#000000;fillColor=none;verticalAlign=top;dashed=1;dashPattern=1 1;" vertex="1" parent="9vFWIDzpB-WMlndjmJIf-36">
          <mxGeometry x="90" y="310" width="120" height="138" as="geometry" />
        </mxCell>
        <mxCell id="9vFWIDzpB-WMlndjmJIf-115" value="&lt;span style=&quot;color: rgb(0 , 0 , 0) ; font-family: &amp;#34;helvetica&amp;#34; ; font-size: 11px ; font-style: normal ; font-weight: 400 ; letter-spacing: normal ; text-align: center ; text-indent: 0px ; text-transform: none ; word-spacing: 0px ; background-color: rgb(248 , 249 , 250) ; display: inline ; float: none&quot;&gt;update undo log buffer&lt;/span&gt;" style="whiteSpace=wrap;html=1;shadow=0;glass=0;sketch=0;fontSize=11;fontColor=#000000;fillColor=none;rounded=1;dashed=1;dashPattern=1 1;" vertex="1" parent="9vFWIDzpB-WMlndjmJIf-36">
          <mxGeometry x="100" y="332" width="100" height="30" as="geometry" />
        </mxCell>
        <mxCell id="9vFWIDzpB-WMlndjmJIf-116" value="&lt;span style=&quot;color: rgb(0 , 0 , 0) ; font-family: &amp;#34;helvetica&amp;#34; ; font-style: normal ; font-weight: 400 ; letter-spacing: normal ; text-align: center ; text-indent: 0px ; text-transform: none ; word-spacing: 0px ; background-color: rgb(248 , 249 , 250) ; display: inline ; float: none&quot;&gt;&lt;font style=&quot;font-size: 10px&quot;&gt;insert undo log buffer&amp;nbsp;&lt;/font&gt;&lt;/span&gt;" style="whiteSpace=wrap;html=1;shadow=0;glass=0;sketch=0;fontSize=11;fontColor=#000000;fillColor=none;rounded=1;dashed=1;dashPattern=1 1;" vertex="1" parent="9vFWIDzpB-WMlndjmJIf-36">
          <mxGeometry x="100" y="410" width="100" height="30" as="geometry" />
        </mxCell>
        <mxCell id="9vFWIDzpB-WMlndjmJIf-119" value="&lt;p style=&quot;line-height: 1&quot;&gt;&lt;font style=&quot;font-size: 6px&quot;&gt;redo log buffer&lt;/font&gt;&lt;/p&gt;" style="text;html=1;align=center;verticalAlign=middle;resizable=0;points=[];autosize=1;strokeColor=none;fillColor=none;fontSize=7;fontColor=#000000;" vertex="1" parent="9vFWIDzpB-WMlndjmJIf-36">
          <mxGeometry x="105" y="302" width="90" height="30" as="geometry" />
        </mxCell>
        <mxCell id="9vFWIDzpB-WMlndjmJIf-122" value="&lt;p style=&quot;font-size: 10px&quot;&gt;&lt;font style=&quot;font-size: 10px ; line-height: 1&quot;&gt;3.写入数据的旧值&lt;br style=&quot;font-size: 10px&quot;&gt;&lt;/font&gt;&lt;font style=&quot;font-size: 10px ; line-height: 1&quot;&gt;至undo log buffer&lt;br style=&quot;font-size: 10px&quot;&gt;&lt;/font&gt;&lt;font style=&quot;font-size: 10px ; line-height: 1&quot;&gt;设置undo回滚段状态为&lt;/font&gt;&lt;font style=&quot;font-size: 10px ; line-height: 1&quot;&gt;&lt;br style=&quot;font-size: 10px&quot;&gt;&lt;/font&gt;&lt;font style=&quot;font-size: 10px ; line-height: 1&quot;&gt;(TRX_UNDO_PREPARED&lt;/font&gt;&lt;font style=&quot;font-size: 10px ; line-height: 1&quot;&gt;)&lt;/font&gt;&lt;/p&gt;" style="text;html=1;align=center;verticalAlign=middle;resizable=0;points=[];autosize=1;strokeColor=none;fillColor=none;fontSize=6;fontColor=#5A687D;" vertex="1" parent="9vFWIDzpB-WMlndjmJIf-36">
          <mxGeometry x="-67" y="254" width="160" height="70" as="geometry" />
        </mxCell>
        <mxCell id="9vFWIDzpB-WMlndjmJIf-76" value="获取记录页" style="text;html=1;align=center;verticalAlign=middle;resizable=0;points=[];autosize=1;fontSize=10;fontColor=#FF8000;" vertex="1" parent="9vFWIDzpB-WMlndjmJIf-36">
          <mxGeometry x="327" y="136" width="80" height="20" as="geometry" />
        </mxCell>
        <mxCell id="9vFWIDzpB-WMlndjmJIf-35" value="" style="edgeStyle=orthogonalEdgeStyle;rounded=0;orthogonalLoop=1;jettySize=auto;html=1;startArrow=classicThin;startFill=1;" edge="1" parent="1" source="9vFWIDzpB-WMlndjmJIf-6" target="9vFWIDzpB-WMlndjmJIf-3">
          <mxGeometry relative="1" as="geometry" />
        </mxCell>
        <mxCell id="9vFWIDzpB-WMlndjmJIf-6" value="Mysql Client" style="rounded=1;whiteSpace=wrap;html=1;" vertex="1" parent="1">
          <mxGeometry x="-239" y="120" width="100" height="40" as="geometry" />
        </mxCell>
        <mxCell id="9vFWIDzpB-WMlndjmJIf-25" value="查询缓存" style="rounded=1;whiteSpace=wrap;html=1;" vertex="1" parent="1">
          <mxGeometry x="166" y="120" width="94" height="40" as="geometry" />
        </mxCell>
        <mxCell id="9vFWIDzpB-WMlndjmJIf-67" value="" style="endArrow=none;html=1;fontSize=11;fontColor=#000000;exitX=1;exitY=0.25;exitDx=0;exitDy=0;entryX=0.019;entryY=0.204;entryDx=0;entryDy=0;entryPerimeter=0;startArrow=classicThin;startFill=1;curved=1;endFill=0;" edge="1" parent="1" source="9vFWIDzpB-WMlndjmJIf-32" target="9vFWIDzpB-WMlndjmJIf-63">
          <mxGeometry width="50" height="50" relative="1" as="geometry">
            <mxPoint x="320" y="390" as="sourcePoint" />
            <mxPoint x="370" y="340" as="targetPoint" />
            <Array as="points">
              <mxPoint x="200" y="180" />
            </Array>
          </mxGeometry>
        </mxCell>
        <mxCell id="9vFWIDzpB-WMlndjmJIf-69" value="" style="edgeStyle=orthogonalEdgeStyle;rounded=0;orthogonalLoop=1;jettySize=auto;html=1;fontSize=11;fontColor=#000000;startArrow=classicThin;startFill=1;" edge="1" parent="1" source="9vFWIDzpB-WMlndjmJIf-3" target="9vFWIDzpB-WMlndjmJIf-25">
          <mxGeometry relative="1" as="geometry" />
        </mxCell>
        <mxCell id="9vFWIDzpB-WMlndjmJIf-70" value="MySQL Protocol" style="text;html=1;align=center;verticalAlign=middle;resizable=0;points=[];autosize=1;strokeColor=none;fillColor=none;fontSize=11;fontColor=#000000;" vertex="1" parent="1">
          <mxGeometry x="-120" y="120" width="100" height="20" as="geometry" />
        </mxCell>
        <mxCell id="9vFWIDzpB-WMlndjmJIf-82" value="" style="rounded=1;whiteSpace=wrap;html=1;fontSize=11;fillColor=#dae8fc;strokeColor=#6c8ebf;" vertex="1" parent="1">
          <mxGeometry x="395" y="575" width="10" height="10" as="geometry" />
        </mxCell>
        <mxCell id="9vFWIDzpB-WMlndjmJIf-83" value="&lt;font color=&quot;#000000&quot;&gt;free page&lt;/font&gt;" style="text;html=1;align=center;verticalAlign=middle;resizable=0;points=[];autosize=1;strokeColor=none;fillColor=none;fontSize=11;fontColor=#FF8000;" vertex="1" parent="1">
          <mxGeometry x="401" y="570" width="70" height="20" as="geometry" />
        </mxCell>
        <mxCell id="9vFWIDzpB-WMlndjmJIf-84" value="" style="rounded=1;whiteSpace=wrap;html=1;fontSize=11;fillColor=#97D077;strokeColor=#6c8ebf;" vertex="1" parent="1">
          <mxGeometry x="395" y="595" width="10" height="10" as="geometry" />
        </mxCell>
        <mxCell id="9vFWIDzpB-WMlndjmJIf-85" value="&lt;font color=&quot;#000000&quot;&gt;clean page&lt;/font&gt;" style="text;html=1;align=center;verticalAlign=middle;resizable=0;points=[];autosize=1;strokeColor=none;fillColor=none;fontSize=11;fontColor=#FF8000;" vertex="1" parent="1">
          <mxGeometry x="405" y="590" width="70" height="20" as="geometry" />
        </mxCell>
        <mxCell id="9vFWIDzpB-WMlndjmJIf-86" value="1. 获取数据 for CRUD" style="text;html=1;align=center;verticalAlign=middle;resizable=0;points=[];autosize=1;strokeColor=none;fillColor=none;fontSize=11;fontColor=#5A687D;" vertex="1" parent="1">
          <mxGeometry x="215" y="190" width="130" height="20" as="geometry" />
        </mxCell>
        <mxCell id="9vFWIDzpB-WMlndjmJIf-88" value="" style="rounded=1;whiteSpace=wrap;html=1;fontSize=11;fillColor=#5A687D;strokeColor=#6c8ebf;" vertex="1" parent="1">
          <mxGeometry x="395" y="615" width="10" height="10" as="geometry" />
        </mxCell>
        <mxCell id="9vFWIDzpB-WMlndjmJIf-89" value="&lt;font color=&quot;#000000&quot;&gt;dirty page&lt;/font&gt;" style="text;html=1;align=center;verticalAlign=middle;resizable=0;points=[];autosize=1;strokeColor=none;fillColor=none;fontSize=11;fontColor=#FF8000;" vertex="1" parent="1">
          <mxGeometry x="403" y="610" width="70" height="20" as="geometry" />
        </mxCell>
        <mxCell id="9vFWIDzpB-WMlndjmJIf-95" value="" style="edgeStyle=orthogonalEdgeStyle;rounded=0;orthogonalLoop=1;jettySize=auto;html=1;fontSize=11;fontColor=#000000;startArrow=none;startFill=0;endArrow=classic;endFill=1;strokeColor=#D5E8D4;" edge="1" parent="1" source="9vFWIDzpB-WMlndjmJIf-92">
          <mxGeometry relative="1" as="geometry">
            <mxPoint x="545" y="582" as="targetPoint" />
          </mxGeometry>
        </mxCell>
        <mxCell id="9vFWIDzpB-WMlndjmJIf-92" value="" style="rounded=1;whiteSpace=wrap;html=1;fontSize=11;fillColor=#dae8fc;strokeColor=#6c8ebf;arcSize=0;" vertex="1" parent="1">
          <mxGeometry x="516" y="577" width="10" height="10" as="geometry" />
        </mxCell>
        <mxCell id="9vFWIDzpB-WMlndjmJIf-93" value="" style="rounded=1;whiteSpace=wrap;html=1;fontSize=11;fillColor=#dae8fc;strokeColor=#6c8ebf;arcSize=0;" vertex="1" parent="1">
          <mxGeometry x="546" y="577" width="10" height="10" as="geometry" />
        </mxCell>
        <mxCell id="9vFWIDzpB-WMlndjmJIf-94" value="" style="rounded=1;whiteSpace=wrap;html=1;fontSize=11;fillColor=#dae8fc;strokeColor=#6c8ebf;arcSize=0;" vertex="1" parent="1">
          <mxGeometry x="577" y="577" width="10" height="10" as="geometry" />
        </mxCell>
        <mxCell id="9vFWIDzpB-WMlndjmJIf-96" value="free list" style="text;html=1;align=center;verticalAlign=middle;resizable=0;points=[];autosize=1;strokeColor=none;fillColor=none;fontSize=11;fontColor=#000000;" vertex="1" parent="1">
          <mxGeometry x="593" y="571" width="50" height="20" as="geometry" />
        </mxCell>
        <mxCell id="9vFWIDzpB-WMlndjmJIf-97" value="" style="edgeStyle=orthogonalEdgeStyle;rounded=0;orthogonalLoop=1;jettySize=auto;html=1;fontSize=11;fontColor=#000000;startArrow=none;startFill=0;endArrow=classic;endFill=1;strokeColor=#D5E8D4;" edge="1" parent="1">
          <mxGeometry relative="1" as="geometry">
            <mxPoint x="557" y="582" as="sourcePoint" />
            <mxPoint x="576" y="582" as="targetPoint" />
          </mxGeometry>
        </mxCell>
        <mxCell id="9vFWIDzpB-WMlndjmJIf-98" value="" style="edgeStyle=orthogonalEdgeStyle;rounded=0;orthogonalLoop=1;jettySize=auto;html=1;fontSize=11;fontColor=#000000;startArrow=none;startFill=0;endArrow=classic;endFill=1;strokeColor=#D5E8D4;" edge="1" parent="1" source="9vFWIDzpB-WMlndjmJIf-99">
          <mxGeometry relative="1" as="geometry">
            <mxPoint x="545" y="600" as="targetPoint" />
          </mxGeometry>
        </mxCell>
        <mxCell id="9vFWIDzpB-WMlndjmJIf-99" value="" style="rounded=1;whiteSpace=wrap;html=1;fontSize=11;fillColor=#97D077;strokeColor=#6c8ebf;arcSize=0;glass=0;shadow=0;sketch=0;" vertex="1" parent="1">
          <mxGeometry x="516" y="595" width="10" height="10" as="geometry" />
        </mxCell>
        <mxCell id="9vFWIDzpB-WMlndjmJIf-100" value="" style="rounded=1;whiteSpace=wrap;html=1;fontSize=11;fillColor=#5A687D;strokeColor=#6c8ebf;arcSize=0;glass=0;shadow=0;sketch=0;" vertex="1" parent="1">
          <mxGeometry x="546" y="595" width="10" height="10" as="geometry" />
        </mxCell>
        <mxCell id="9vFWIDzpB-WMlndjmJIf-101" value="" style="rounded=1;whiteSpace=wrap;html=1;fontSize=11;fillColor=#97D077;strokeColor=#6c8ebf;arcSize=0;glass=0;shadow=0;sketch=0;" vertex="1" parent="1">
          <mxGeometry x="577" y="595" width="10" height="10" as="geometry" />
        </mxCell>
        <mxCell id="9vFWIDzpB-WMlndjmJIf-102" value="lru list" style="text;html=1;align=center;verticalAlign=middle;resizable=0;points=[];autosize=1;strokeColor=none;fillColor=none;fontSize=11;fontColor=#000000;" vertex="1" parent="1">
          <mxGeometry x="588" y="589" width="50" height="20" as="geometry" />
        </mxCell>
        <mxCell id="9vFWIDzpB-WMlndjmJIf-103" value="" style="edgeStyle=orthogonalEdgeStyle;rounded=0;orthogonalLoop=1;jettySize=auto;html=1;fontSize=11;fontColor=#000000;startArrow=none;startFill=0;endArrow=classic;endFill=1;strokeColor=#D5E8D4;" edge="1" parent="1">
          <mxGeometry relative="1" as="geometry">
            <mxPoint x="557" y="600" as="sourcePoint" />
            <mxPoint x="576" y="600" as="targetPoint" />
          </mxGeometry>
        </mxCell>
        <mxCell id="9vFWIDzpB-WMlndjmJIf-104" value="" style="edgeStyle=orthogonalEdgeStyle;rounded=0;orthogonalLoop=1;jettySize=auto;html=1;fontSize=11;fontColor=#000000;startArrow=none;startFill=0;endArrow=classic;endFill=1;strokeColor=#D5E8D4;" edge="1" parent="1" source="9vFWIDzpB-WMlndjmJIf-105">
          <mxGeometry relative="1" as="geometry">
            <mxPoint x="545" y="618" as="targetPoint" />
          </mxGeometry>
        </mxCell>
        <mxCell id="9vFWIDzpB-WMlndjmJIf-105" value="" style="rounded=1;whiteSpace=wrap;html=1;fontSize=11;fillColor=#5A687D;strokeColor=#6c8ebf;arcSize=0;glass=0;shadow=0;sketch=0;" vertex="1" parent="1">
          <mxGeometry x="516" y="613" width="10" height="10" as="geometry" />
        </mxCell>
        <mxCell id="9vFWIDzpB-WMlndjmJIf-106" value="" style="rounded=1;whiteSpace=wrap;html=1;fontSize=11;fillColor=#5A687D;strokeColor=#6c8ebf;arcSize=0;glass=0;shadow=0;sketch=0;" vertex="1" parent="1">
          <mxGeometry x="546" y="613" width="10" height="10" as="geometry" />
        </mxCell>
        <mxCell id="9vFWIDzpB-WMlndjmJIf-107" value="" style="rounded=1;whiteSpace=wrap;html=1;fontSize=11;fillColor=#5A687D;strokeColor=#6c8ebf;arcSize=0;glass=0;shadow=0;sketch=0;" vertex="1" parent="1">
          <mxGeometry x="577" y="613" width="10" height="10" as="geometry" />
        </mxCell>
        <mxCell id="9vFWIDzpB-WMlndjmJIf-108" value="flush list" style="text;html=1;align=center;verticalAlign=middle;resizable=0;points=[];autosize=1;strokeColor=none;fillColor=none;fontSize=11;fontColor=#000000;" vertex="1" parent="1">
          <mxGeometry x="588" y="607" width="60" height="20" as="geometry" />
        </mxCell>
        <mxCell id="9vFWIDzpB-WMlndjmJIf-109" value="" style="edgeStyle=orthogonalEdgeStyle;rounded=0;orthogonalLoop=1;jettySize=auto;html=1;fontSize=11;fontColor=#000000;startArrow=none;startFill=0;endArrow=classic;endFill=1;strokeColor=#D5E8D4;" edge="1" parent="1">
          <mxGeometry relative="1" as="geometry">
            <mxPoint x="557" y="618" as="sourcePoint" />
            <mxPoint x="576" y="618" as="targetPoint" />
          </mxGeometry>
        </mxCell>
        <mxCell id="9vFWIDzpB-WMlndjmJIf-110" value="准备prepare阶段，&lt;br&gt;调用innodb存储引擎操作接口：&lt;br&gt;innobase_xa_prepare接口&lt;br&gt;操作Buffer Pool中的记录&lt;br&gt;&lt;span style=&quot;font-size: 11px&quot;&gt;innobase_flush_logs接口&lt;/span&gt;&lt;br&gt;&lt;span style=&quot;font-size: 11px&quot;&gt;redo/undo log 刷盘&lt;/span&gt;" style="text;html=1;align=center;verticalAlign=middle;resizable=0;points=[];autosize=1;strokeColor=none;fillColor=none;fontSize=11;fontColor=#5A687D;" vertex="1" parent="1">
          <mxGeometry x="198" y="234" width="180" height="80" as="geometry" />
        </mxCell>
        <mxCell id="9vFWIDzpB-WMlndjmJIf-113" value="2. 执行器修改数据" style="text;html=1;align=center;verticalAlign=middle;resizable=0;points=[];autosize=1;strokeColor=none;fillColor=none;fontSize=11;fontColor=#5A687D;" vertex="1" parent="1">
          <mxGeometry x="140" y="360" width="110" height="20" as="geometry" />
        </mxCell>
        <mxCell id="9vFWIDzpB-WMlndjmJIf-120" value="" style="curved=1;endArrow=none;html=1;fontSize=6;fontColor=#000000;strokeColor=#000000;exitX=0;exitY=0.5;exitDx=0;exitDy=0;startArrow=classicThin;startFill=1;endFill=0;dashed=1;dashPattern=1 1;" edge="1" parent="1" source="9vFWIDzpB-WMlndjmJIf-115">
          <mxGeometry width="50" height="50" relative="1" as="geometry">
            <mxPoint x="350" y="370" as="sourcePoint" />
            <mxPoint x="390" y="320" as="targetPoint" />
            <Array as="points">
              <mxPoint x="390" y="380" />
              <mxPoint x="350" y="320" />
            </Array>
          </mxGeometry>
        </mxCell>
        <mxCell id="9vFWIDzpB-WMlndjmJIf-124" value="4. 更新buffer pool 中的数据记录&lt;br&gt;对应的页变成dirty page&lt;br&gt;写入flush list" style="text;html=1;align=center;verticalAlign=middle;resizable=0;points=[];autosize=1;strokeColor=none;fillColor=none;fontSize=10;fontColor=#5A687D;" vertex="1" parent="1">
          <mxGeometry x="380" y="32" width="180" height="40" as="geometry" />
        </mxCell>
        <mxCell id="9vFWIDzpB-WMlndjmJIf-125" value="" style="endArrow=classic;html=1;fontSize=10;fontColor=#000000;strokeColor=#000000;curved=1;dashed=1;" edge="1" parent="1" source="9vFWIDzpB-WMlndjmJIf-124">
          <mxGeometry width="50" height="50" relative="1" as="geometry">
            <mxPoint x="478" y="70" as="sourcePoint" />
            <mxPoint x="530" y="195" as="targetPoint" />
          </mxGeometry>
        </mxCell>
        <mxCell id="9vFWIDzpB-WMlndjmJIf-126" value="" style="endArrow=classic;html=1;fontSize=10;fontColor=#000000;strokeColor=#000000;curved=1;dashed=1;dashPattern=1 1;entryX=-0.13;entryY=0.05;entryDx=0;entryDy=0;entryPerimeter=0;" edge="1" parent="1">
          <mxGeometry width="50" height="50" relative="1" as="geometry">
            <mxPoint x="538" y="202" as="sourcePoint" />
            <mxPoint x="774.4000000000001" y="202" as="targetPoint" />
          </mxGeometry>
        </mxCell>
        <mxCell id="9vFWIDzpB-WMlndjmJIf-130" value="异步flush data" style="text;html=1;align=center;verticalAlign=middle;resizable=0;points=[];autosize=1;fontSize=10;fontColor=#5A687D;" vertex="1" parent="1">
          <mxGeometry x="551" y="198" width="90" height="20" as="geometry" />
        </mxCell>
        <mxCell id="9vFWIDzpB-WMlndjmJIf-131" value="5. 将修改记录LSN&lt;br&gt;xid 写入redo log buffer" style="text;html=1;align=center;verticalAlign=middle;resizable=0;points=[];autosize=1;strokeColor=none;fillColor=none;fontSize=10;fontColor=#5A687D;" vertex="1" parent="1">
          <mxGeometry x="295" y="424" width="140" height="30" as="geometry" />
        </mxCell>
        <mxCell id="9vFWIDzpB-WMlndjmJIf-132" value="" style="endArrow=classic;html=1;fontSize=10;fontColor=#000000;strokeColor=#000000;curved=1;dashed=1;entryX=0;entryY=0.072;entryDx=0;entryDy=0;entryPerimeter=0;exitX=0.53;exitY=0.027;exitDx=0;exitDy=0;exitPerimeter=0;" edge="1" parent="1" source="9vFWIDzpB-WMlndjmJIf-131" target="9vFWIDzpB-WMlndjmJIf-71">
          <mxGeometry width="50" height="50" relative="1" as="geometry">
            <mxPoint x="488" y="80" as="sourcePoint" />
            <mxPoint x="540" y="205" as="targetPoint" />
          </mxGeometry>
        </mxCell>
        <mxCell id="9vFWIDzpB-WMlndjmJIf-137" value="&lt;span style=&quot;color: rgb(36, 41, 46); background-color: rgb(255, 255, 255); font-size: 12px;&quot;&gt;&lt;font style=&quot;font-size: 12px;&quot;&gt;防止数据丢失参数：&lt;br style=&quot;font-size: 12px;&quot;&gt;sync_binlog=1&lt;br style=&quot;font-size: 12px;&quot;&gt;&lt;/font&gt;&lt;/span&gt;&lt;p style=&quot;box-sizing: border-box; margin: 0px 0px 16px; line-height: 26px; padding: 0px; color: rgb(36, 41, 46); background-color: rgb(255, 255, 255); font-size: 12px;&quot;&gt;&lt;font style=&quot;font-size: 12px;&quot;&gt;innodb_flush_log_at_trx_commit=1&lt;/font&gt;&lt;/p&gt;" style="text;html=1;align=center;verticalAlign=middle;resizable=0;points=[];autosize=1;strokeColor=none;fillColor=none;fontSize=12;fontColor=#5A687D;" vertex="1" parent="1">
          <mxGeometry x="40" y="565" width="200" height="80" as="geometry" />
        </mxCell>
        <mxCell id="9vFWIDzpB-WMlndjmJIf-139" value="从6 flush redo log 开始 以组提交方式 优化事务吞吐量,分为如下阶段：&lt;br&gt;&lt;span style=&quot;font-size: 10px&quot;&gt;flush 阶段、sync 阶段、(replication复制阶段) 、commit 阶段；&lt;br&gt;其中replication复制阶段以HOOK的方式动态运行对于的replication复制策略，默认是异步复制&lt;/span&gt;" style="text;html=1;align=center;verticalAlign=middle;resizable=0;points=[];autosize=1;strokeColor=none;fillColor=none;fontSize=10;fontColor=#000000;" vertex="1" parent="1">
          <mxGeometry x="161" y="648" width="510" height="40" as="geometry" />
        </mxCell>
      </root>
    </mxGraphModel>
  </diagram>
</mxfile>
